<?xml version="1.0" encoding="utf-8"?>
<!-- Generator: Adobe Illustrator 27.4.1, SVG Export Plug-In . SVG Version: 6.00 Build 0)  -->
<svg version="1.1" id="Layer_1" xmlns="http://www.w3.org/2000/svg" xmlns:xlink="http://www.w3.org/1999/xlink" x="0px" y="0px"
	 viewBox="0 0 48.1 48" style="enable-background:new 0 0 48.1 48;" xml:space="preserve">
<style type="text/css">
	.st0{fill:#FFFFFF;}
</style>
<ellipse cx="24.1" cy="24" rx="24.1" ry="24"/>
<path class="st0" d="M24.1,0C10.8,0,0,10.7,0,24c0,11.2,7.8,20.7,18.2,23.3c-0.1-0.3-0.2-0.7-0.2-1.2V42c-1,0-2.6,0-3,0
	c-1.6,0-3.1-0.7-3.8-2c-0.8-1.5-0.9-3.7-2.9-5.1c-0.6-0.5-0.1-1,0.5-0.9c1.2,0.3,2.3,1.2,3.2,2.4c1,1.3,1.4,1.5,3.2,1.5
	c0.9,0,2.2,0,3.4-0.2c0.7-1.7,1.8-3.2,3.2-3.9C13.8,33,10,29,10,23.6c0-2.3,1-4.6,2.7-6.5c-0.6-1.9-1.2-5.7,0.2-7.2
	c3.6,0,5.8,2.3,6.3,3c1.8-0.6,3.8-1,5.8-1c2.1,0,4.1,0.3,5.9,1c0.5-0.6,2.7-3,6.3-3c1.5,1.5,0.8,5.3,0.2,7.2
	c1.7,1.9,2.7,4.1,2.7,6.5c0,5.4-3.8,9.4-11.8,10.2c2.2,1.1,3.8,4.4,3.8,6.8v5.5c0,0.2,0,0.4-0.1,0.5c9.4-3.3,16.1-12.2,16.1-22.6
	C48.1,10.7,37.3,0,24.1,0z"/>
</svg>
